<?xml version='1.0' encoding='utf-8'?>
<!DOCTYPE svg PUBLIC '-//W3C//DTD SVG 1.1//EN' 'http://www.w3.org/Graphics/SVG/1.1/DTD/svg11.dtd'>
<svg version="1.1" xmlns="http://www.w3.org/2000/svg" viewBox="0 0 512 512" xmlns:xlink="http://www.w3.org/1999/xlink" enable-background="new 0 0 512 512">
  <g>
    <path d="m494.7,465.4l-26.7-26.7 28.9-106.4c1.9-7.1-0.1-14.6-5.3-19.8l-77.3-77.3 28.9-106.2c1.9-7.1-0.1-14.6-5.3-19.8l-85.8-85.8c-5.2-5.2-12.7-7.2-19.8-5.3l-106.2,29-30.2-30.1c-8-8-20.9-8-28.8,0-8,8-8,20.9 0,28.8l30.1,30.1-25.8,95.1-95.1,25.8-30.1-30.1c-8-8-20.9-8-28.8,0-8,8-8,20.9 0,28.8l30.1,30.1-28.9,106.4c-1.9,7 0.1,14.6 5.3,19.8l85.8,85.8c3.9,3.9 10.1,7.9 19.8,5.3l106.4-28.9 77.3,77.3c4.2,4.3 10.5,8.6 19.8,5.3l106.4-28.9 26.7,26.7c14.6,12.9 24.9,4 28.8,0 7.7-8.1 7.7-21-0.2-29zm-93.9-335.7l-25.8,94.9-95.3,25.9-68.9-68.9 25.8-95.1 95.1-25.8 69.1,69zm-339.8,201.6l25.8-95.1 95.1-25.8 68.9,68.9-25.8,95.3-94.9,25.8-69.1-69.1zm203.5,53.8l25.8-95.1 95.1-25.8 68.9,68.9c0,0-26.4,93.2-27,93.9-0.6,0.6-93.9,27-93.9,27l-68.9-68.9z"/>
  </g>
</svg>
